<mxfile host="Electron" agent="Mozilla/5.0 (Windows NT 10.0; Win64; x64) AppleWebKit/537.36 (KHTML, like Gecko) draw.io/27.0.9 Chrome/134.0.6998.205 Electron/35.4.0 Safari/537.36" version="27.0.9">
  <diagram name="Page-1" id="n3a2UDe3_1RXxBpYmIJH">
    <mxGraphModel dx="1011" dy="501" grid="1" gridSize="10" guides="1" tooltips="1" connect="1" arrows="1" fold="1" page="1" pageScale="1" pageWidth="850" pageHeight="1100" math="0" shadow="0">
      <root>
        <mxCell id="0" />
        <mxCell id="1" parent="0" />
        <mxCell id="1Y2XG9XGhemxwxmtmqPw-7" value="" style="edgeStyle=orthogonalEdgeStyle;rounded=0;orthogonalLoop=1;jettySize=auto;html=1;" edge="1" parent="1" source="1Y2XG9XGhemxwxmtmqPw-1" target="1Y2XG9XGhemxwxmtmqPw-6">
          <mxGeometry relative="1" as="geometry" />
        </mxCell>
        <mxCell id="1Y2XG9XGhemxwxmtmqPw-1" value="Scan Engine" style="rounded=0;whiteSpace=wrap;html=1;" vertex="1" parent="1">
          <mxGeometry x="240" y="71.88" width="140" height="38.12" as="geometry" />
        </mxCell>
        <mxCell id="1Y2XG9XGhemxwxmtmqPw-54" style="edgeStyle=orthogonalEdgeStyle;rounded=0;orthogonalLoop=1;jettySize=auto;html=1;exitX=1;exitY=0.5;exitDx=0;exitDy=0;entryX=0;entryY=0.5;entryDx=0;entryDy=0;" edge="1" parent="1" source="1Y2XG9XGhemxwxmtmqPw-2" target="1Y2XG9XGhemxwxmtmqPw-1">
          <mxGeometry relative="1" as="geometry" />
        </mxCell>
        <mxCell id="1Y2XG9XGhemxwxmtmqPw-2" value="GitHub Repo" style="rounded=1;whiteSpace=wrap;html=1;" vertex="1" parent="1">
          <mxGeometry x="20" y="73.44" width="120" height="35" as="geometry" />
        </mxCell>
        <mxCell id="1Y2XG9XGhemxwxmtmqPw-17" style="edgeStyle=orthogonalEdgeStyle;rounded=0;orthogonalLoop=1;jettySize=auto;html=1;" edge="1" parent="1" source="1Y2XG9XGhemxwxmtmqPw-6" target="1Y2XG9XGhemxwxmtmqPw-8">
          <mxGeometry relative="1" as="geometry" />
        </mxCell>
        <mxCell id="1Y2XG9XGhemxwxmtmqPw-6" value="Local Repository" style="rounded=0;whiteSpace=wrap;html=1;" vertex="1" parent="1">
          <mxGeometry x="240" y="147.5" width="140" height="35" as="geometry" />
        </mxCell>
        <mxCell id="1Y2XG9XGhemxwxmtmqPw-41" style="edgeStyle=orthogonalEdgeStyle;rounded=0;orthogonalLoop=1;jettySize=auto;html=1;entryX=0.5;entryY=0;entryDx=0;entryDy=0;" edge="1" parent="1" source="1Y2XG9XGhemxwxmtmqPw-8" target="1Y2XG9XGhemxwxmtmqPw-10">
          <mxGeometry relative="1" as="geometry" />
        </mxCell>
        <mxCell id="1Y2XG9XGhemxwxmtmqPw-42" style="edgeStyle=orthogonalEdgeStyle;rounded=0;orthogonalLoop=1;jettySize=auto;html=1;exitX=1;exitY=0.5;exitDx=0;exitDy=0;entryX=0.5;entryY=0;entryDx=0;entryDy=0;" edge="1" parent="1" source="1Y2XG9XGhemxwxmtmqPw-8" target="1Y2XG9XGhemxwxmtmqPw-25">
          <mxGeometry relative="1" as="geometry">
            <Array as="points">
              <mxPoint x="370" y="250" />
              <mxPoint x="445" y="250" />
            </Array>
          </mxGeometry>
        </mxCell>
        <mxCell id="1Y2XG9XGhemxwxmtmqPw-44" style="edgeStyle=orthogonalEdgeStyle;rounded=0;orthogonalLoop=1;jettySize=auto;html=1;" edge="1" parent="1" source="1Y2XG9XGhemxwxmtmqPw-8" target="1Y2XG9XGhemxwxmtmqPw-45">
          <mxGeometry relative="1" as="geometry">
            <mxPoint x="550" y="240" as="targetPoint" />
          </mxGeometry>
        </mxCell>
        <mxCell id="1Y2XG9XGhemxwxmtmqPw-58" style="edgeStyle=orthogonalEdgeStyle;rounded=0;orthogonalLoop=1;jettySize=auto;html=1;entryX=0.5;entryY=0;entryDx=0;entryDy=0;" edge="1" parent="1" source="1Y2XG9XGhemxwxmtmqPw-8" target="1Y2XG9XGhemxwxmtmqPw-57">
          <mxGeometry relative="1" as="geometry" />
        </mxCell>
        <mxCell id="1Y2XG9XGhemxwxmtmqPw-66" style="edgeStyle=orthogonalEdgeStyle;rounded=0;orthogonalLoop=1;jettySize=auto;html=1;" edge="1" parent="1" source="1Y2XG9XGhemxwxmtmqPw-8" target="1Y2XG9XGhemxwxmtmqPw-9">
          <mxGeometry relative="1" as="geometry" />
        </mxCell>
        <mxCell id="1Y2XG9XGhemxwxmtmqPw-8" value="Parse Repository" style="rounded=0;whiteSpace=wrap;html=1;" vertex="1" parent="1">
          <mxGeometry x="235" y="210" width="150" height="50" as="geometry" />
        </mxCell>
        <mxCell id="1Y2XG9XGhemxwxmtmqPw-27" style="edgeStyle=orthogonalEdgeStyle;rounded=0;orthogonalLoop=1;jettySize=auto;html=1;entryX=0.5;entryY=0;entryDx=0;entryDy=0;" edge="1" parent="1" source="1Y2XG9XGhemxwxmtmqPw-9" target="1Y2XG9XGhemxwxmtmqPw-26">
          <mxGeometry relative="1" as="geometry" />
        </mxCell>
        <mxCell id="1Y2XG9XGhemxwxmtmqPw-9" value="Semgrep" style="rounded=0;whiteSpace=wrap;html=1;" vertex="1" parent="1">
          <mxGeometry x="260" y="300" width="100" height="40" as="geometry" />
        </mxCell>
        <mxCell id="1Y2XG9XGhemxwxmtmqPw-62" style="edgeStyle=orthogonalEdgeStyle;rounded=0;orthogonalLoop=1;jettySize=auto;html=1;" edge="1" parent="1" source="1Y2XG9XGhemxwxmtmqPw-10">
          <mxGeometry relative="1" as="geometry">
            <mxPoint x="240" y="390" as="targetPoint" />
            <Array as="points">
              <mxPoint x="190" y="365" />
              <mxPoint x="241" y="365" />
            </Array>
          </mxGeometry>
        </mxCell>
        <mxCell id="1Y2XG9XGhemxwxmtmqPw-10" value="Sync" style="rounded=0;whiteSpace=wrap;html=1;" vertex="1" parent="1">
          <mxGeometry x="140" y="300" width="100" height="40" as="geometry" />
        </mxCell>
        <mxCell id="1Y2XG9XGhemxwxmtmqPw-25" value="OWASP" style="rounded=0;whiteSpace=wrap;html=1;" vertex="1" parent="1">
          <mxGeometry x="390" y="300" width="110" height="40" as="geometry" />
        </mxCell>
        <mxCell id="1Y2XG9XGhemxwxmtmqPw-26" value="Consolidate Generate CSV" style="rounded=1;whiteSpace=wrap;html=1;" vertex="1" parent="1">
          <mxGeometry x="220" y="390" width="180" height="40" as="geometry" />
        </mxCell>
        <mxCell id="1Y2XG9XGhemxwxmtmqPw-45" value="Fixes" style="rounded=1;whiteSpace=wrap;html=1;" vertex="1" parent="1">
          <mxGeometry x="550" y="225" width="120" height="40" as="geometry" />
        </mxCell>
        <mxCell id="1Y2XG9XGhemxwxmtmqPw-52" value="" style="edgeStyle=orthogonalEdgeStyle;rounded=0;orthogonalLoop=1;jettySize=auto;html=1;" edge="1" parent="1" source="1Y2XG9XGhemxwxmtmqPw-48" target="1Y2XG9XGhemxwxmtmqPw-51">
          <mxGeometry relative="1" as="geometry" />
        </mxCell>
        <mxCell id="1Y2XG9XGhemxwxmtmqPw-48" value="Create PR" style="rounded=1;whiteSpace=wrap;html=1;" vertex="1" parent="1">
          <mxGeometry x="560" y="300" width="120" height="40" as="geometry" />
        </mxCell>
        <mxCell id="1Y2XG9XGhemxwxmtmqPw-51" value="Notifies to Approver" style="rounded=1;whiteSpace=wrap;html=1;" vertex="1" parent="1">
          <mxGeometry x="560" y="390" width="120" height="40" as="geometry" />
        </mxCell>
        <mxCell id="1Y2XG9XGhemxwxmtmqPw-56" style="edgeStyle=orthogonalEdgeStyle;rounded=0;orthogonalLoop=1;jettySize=auto;html=1;entryX=0.414;entryY=-0.042;entryDx=0;entryDy=0;entryPerimeter=0;" edge="1" parent="1" source="1Y2XG9XGhemxwxmtmqPw-45" target="1Y2XG9XGhemxwxmtmqPw-48">
          <mxGeometry relative="1" as="geometry" />
        </mxCell>
        <mxCell id="1Y2XG9XGhemxwxmtmqPw-59" style="edgeStyle=orthogonalEdgeStyle;rounded=0;orthogonalLoop=1;jettySize=auto;html=1;" edge="1" parent="1" source="1Y2XG9XGhemxwxmtmqPw-57">
          <mxGeometry relative="1" as="geometry">
            <mxPoint x="60" y="400" as="targetPoint" />
          </mxGeometry>
        </mxCell>
        <mxCell id="1Y2XG9XGhemxwxmtmqPw-57" value="SonarQube" style="rounded=0;whiteSpace=wrap;html=1;" vertex="1" parent="1">
          <mxGeometry x="10" y="300" width="100" height="50" as="geometry" />
        </mxCell>
        <mxCell id="1Y2XG9XGhemxwxmtmqPw-61" value="Generate Report PDF/HTML" style="rounded=1;whiteSpace=wrap;html=1;" vertex="1" parent="1">
          <mxGeometry x="10" y="400" width="120" height="35" as="geometry" />
        </mxCell>
        <mxCell id="1Y2XG9XGhemxwxmtmqPw-64" style="edgeStyle=orthogonalEdgeStyle;rounded=0;orthogonalLoop=1;jettySize=auto;html=1;entryX=0.92;entryY=0.029;entryDx=0;entryDy=0;entryPerimeter=0;" edge="1" parent="1" source="1Y2XG9XGhemxwxmtmqPw-25" target="1Y2XG9XGhemxwxmtmqPw-26">
          <mxGeometry relative="1" as="geometry" />
        </mxCell>
      </root>
    </mxGraphModel>
  </diagram>
</mxfile>
